<?xml version="1.0" encoding="utf-8"?>
<!-- Generator: Adobe Illustrator 23.0.2, SVG Export Plug-In . SVG Version: 6.00 Build 0)  -->
<svg version="1.1"
	 id="svg8" xmlns:cc="http://creativecommons.org/ns#" xmlns:dc="http://purl.org/dc/elements/1.1/" xmlns:inkscape="http://www.inkscape.org/namespaces/inkscape" xmlns:rdf="http://www.w3.org/1999/02/22-rdf-syntax-ns#" xmlns:sodipodi="http://sodipodi.sourceforge.net/DTD/sodipodi-0.dtd" xmlns:svg="http://www.w3.org/2000/svg"
	 xmlns="http://www.w3.org/2000/svg" xmlns:xlink="http://www.w3.org/1999/xlink" x="0px" y="0px" viewBox="0 0 20 30"
	 style="enable-background:new 0 0 20 30;" xml:space="preserve">
<style type="text/css">
	.st0{fill:#FFFFFF;}
</style>
<g id="layer1" transform="translate(0,-288.53332)">
	<path id="rect864" class="st0" d="M10,288.5c-3.9,0-7,3.1-7,7v5H1c-0.6,0-1,0.4-1,1v16c0,0.6,0.4,1,1,1h18c0.6,0,1-0.4,1-1v-16
		c0-0.6-0.4-1-1-1h-2v-5C17,291.7,13.9,288.5,10,288.5z M10,290.5c2.8,0,5,2.2,5,5v5H5v-5C5,292.7,7.2,290.5,10,290.5z M10,308.6
		c0.6,0,1,0.4,1,1l0,0c0,0.6-0.4,1-1,1l0,0c-0.6,0-1-0.4-1-1l0,0C9,309,9.4,308.6,10,308.6L10,308.6z"/>
</g>
</svg>
