<?xml version="1.0" encoding="utf-8"?>
<!-- Generator: Adobe Illustrator 23.0.2, SVG Export Plug-In . SVG Version: 6.00 Build 0)  -->
<svg version="1.1" id="Layer_1" xmlns="http://www.w3.org/2000/svg" xmlns:xlink="http://www.w3.org/1999/xlink" x="0px" y="0px"
	 viewBox="0 0 384 384" style="enable-background:new 0 0 384 384;" xml:space="preserve">
<style type="text/css">
	.st0{fill:#FFFFFF;}
</style>
<path class="st0" d="M280.5,234c15-23.6,23.8-51.6,23.8-81.7C304.3,68.2,236.2,0,152.2,0C68.1,0,0,68.2,0,152.3
	s68.1,152.3,152.1,152.3c30.5,0,58.9-9,82.7-24.4l6.9-4.8L350.3,384l33.7-34.3L275.5,241.1L280.5,234z M237.4,67.2
	c22.7,22.7,35.2,52.9,35.2,85s-12.5,62.3-35.2,85s-52.9,35.2-85,35.2s-62.3-12.5-85-35.2s-35.2-52.9-35.2-85s12.5-62.3,35.2-85
	s52.9-35.2,85-35.2C184.5,32,214.7,44.5,237.4,67.2z"/>
</svg>
