<svg xmlns="http://www.w3.org/2000/svg" viewBox="0 0 66.8 72"><title>cookie_icon</title><g id="Layer_2" data-name="Layer 2"><g id="Layer_1-2" data-name="Layer 1"><path d="M55.1,45.1s-6.7,7-6.7,7.1a5.1,5.1,0,0,0-1.1,3.1,5.29,5.29,0,0,0,1.5,3.5,4.64,4.64,0,0,0,3.5,1.4,5.09,5.09,0,0,0,3.5-1.5l4.9-5.2a1.48,1.48,0,0,0-2.1-2.1l-4.9,5.2a2,2,0,0,1-1.4.6,2.39,2.39,0,0,1-1.4-.5,2,2,0,0,1-.6-1.4,2.39,2.39,0,0,1,.5-1.4l6.4-6.7a3.8,3.8,0,0,1,5.4-.1,4,4,0,0,1,1.2,2.7,3.86,3.86,0,0,1-1.1,2.7L51.6,64.1a3.82,3.82,0,1,1-5.5-5.3A1.48,1.48,0,0,0,44,56.7a6.79,6.79,0,0,0,.2,9.6,6.57,6.57,0,0,0,4.7,1.9,6.66,6.66,0,0,0,4.9-2.1L64.9,54.5a6.71,6.71,0,0,0,1.9-4.9,6.75,6.75,0,0,0-11.7-4.5Z"/><path d="M16,27.8a4.53,4.53,0,0,0-3.5-5.3,2.77,2.77,0,0,0-.9-.1,4.5,4.5,0,0,0-.9,8.9,2.77,2.77,0,0,0,.9.1A4.58,4.58,0,0,0,16,27.8Zm-3-.6a1.58,1.58,0,0,1-1.8,1.2A1.65,1.65,0,0,1,10,26.6a1.51,1.51,0,0,1,1.5-1.2h.3A1.48,1.48,0,0,1,13,27.2Z"/><path d="M13.9,43.9a1.56,1.56,0,0,0,1.3-.8,11.39,11.39,0,0,1,7.7-5.5,4.49,4.49,0,0,0,3.6,1.9h0a4.82,4.82,0,0,0,3.2-1.3A4.22,4.22,0,0,0,31,35a4.81,4.81,0,0,0-.7-2.4l.1-.1a1.39,1.39,0,0,0,.5-1,4.57,4.57,0,0,1,4-4.1,1.51,1.51,0,0,0,1.3-1.5A6.6,6.6,0,0,1,38.4,21a1.55,1.55,0,0,0,.5-1.4,4.87,4.87,0,0,1-.1-1.2A6,6,0,0,1,42,13.1a1.76,1.76,0,0,0,.8-.9,1.32,1.32,0,0,0-.2-1.2A23,23,0,0,0,0,23,23.21,23.21,0,0,0,13.2,43.8C13.5,43.8,13.7,43.9,13.9,43.9ZM27.7,36a1.5,1.5,0,0,1-1.1.4v0a1.57,1.57,0,0,1-1.4-.9v-.1a.9.9,0,0,1-.1-.5v-.3a1.43,1.43,0,0,1,1.5-1.2.6.6,0,0,1,.4.1h.1c.1,0,.2.1.3.2a1.56,1.56,0,0,1,.7,1.3A1.16,1.16,0,0,1,27.7,36ZM3.1,22.9A20,20,0,0,1,39.4,11.3a8.76,8.76,0,0,0-3.5,7,3.4,3.4,0,0,0,.1,1,9.7,9.7,0,0,0-2.5,5.3,7.6,7.6,0,0,0-5.3,6l-.2.2c-.1,0-.2-.1-.3-.1h-.2a2.49,2.49,0,0,0-.8-.1h0a2.77,2.77,0,0,0-.9.1c-.1,0-.2.1-.3.1s-.4.1-.5.2-.2.1-.3.2a.76.76,0,0,1-.4.2c-.1.1-.2.2-.3.2s-.3.2-.4.3-.2.2-.2.3a1.38,1.38,0,0,0-.3.4c-.1.1-.1.2-.2.3-.3,0-.3.1-.4.3s-.1.2-.1.4a.75.75,0,0,0-.1.5.6.6,0,0,1-.1.4.37.37,0,0,1-.1.3,14.32,14.32,0,0,0-8.7,5.7A20.34,20.34,0,0,1,3.1,22.9Z"/><path d="M16.7,16.4a4.5,4.5,0,1,0-4.5-4.5A4.48,4.48,0,0,0,16.7,16.4Zm0-6a1.5,1.5,0,1,1-1.5,1.5A1.54,1.54,0,0,1,16.7,10.4Z"/><path d="M40.5,18.1a4.7,4.7,0,1,0,4.7-4.7A4.76,4.76,0,0,0,40.5,18.1Zm4.6-1.6a1.69,1.69,0,0,1,1.7,1.7,1.7,1.7,0,1,1-3.4,0A1.69,1.69,0,0,1,45.1,16.5Z"/><circle cx="36.7" cy="29.9" r="1.4"/><circle cx="15.7" cy="49" r="1.4"/><circle cx="21.5" cy="42" r="1.4"/><circle cx="21.7" cy="21.9" r="1.4"/><circle cx="31.6" cy="12" r="1.4"/><path d="M61.6,26.8,52.2,37.4a1.45,1.45,0,0,0,.1,2.1,1.43,1.43,0,0,0,1,.4,1.61,1.61,0,0,0,1.1-.5L64.8,27.7h0c.1-.1.1-.1.1-.2s.1-.2.2-.3v-.6c0-.1-.1-.2-.1-.3s0-.2-.1-.2l-.3-.3-.1-.1h0l-2-1.8,3.8-4.3a1.54,1.54,0,0,0-.1-2.1l-5.6-5.3a1.5,1.5,0,0,0-1.1-.4,1.23,1.23,0,0,0-1,.5L21.1,54.2a.52.52,0,0,0-.2.4L15.6,66.2l-3.1,3.3a1.45,1.45,0,0,0,.1,2.1,1.43,1.43,0,0,0,1,.4,1.61,1.61,0,0,0,1.1-.5l3.1-3.3,11-6.5h0l.3-.3L60.8,26ZM20.1,63.3l2.6-5.6,2.8,2.5Zm7.7-5.1L24.3,55,55,20.7l3.5,3.2ZM57,18.6l2.8-3.1,3.5,3.2-2.8,3.1Z"/></g></g></svg>