<?xml version="1.0" encoding="UTF-8"?>
<svg enable-background="new 0 0 2535 1083" version="1.1" viewBox="0 0 2535 1083" xml:space="preserve" xmlns="http://www.w3.org/2000/svg" xmlns:xlink="http://www.w3.org/1999/xlink">
<style type="text/css">
	.st0{display:none;}
	.st1{fill:none;stroke:#FFFFFF;stroke-width:30;stroke-linecap:round;stroke-miterlimit:10;}
	.st2{fill:#FFFFFF;}
	.st3{fill:none;stroke:#FFFFFF;stroke-width:30;stroke-linecap:round;stroke-linejoin:round;stroke-miterlimit:10;}
</style>
	<g class="st0">
		<image width="2535" height="1083" overflow="visible" xlink:href="77466291352D7C4F.png">
	</image>
</g>
	<path class="st1" d="m79.9 822.2s48.8-264.9 324.5-428.1c0 0 190.6-133.1 277.2-50.4 0 0 57.5 48.4-65.5 197.7 0 0-83.7 109.7-273.2 285.1"/>
	<path class="st1" d="m472 583.7s28.2 76.6 17.1 334.7"/>
	<path class="st1" d="m624.2 531.5s4 256.8 9.1 310.2c0 0 8.1-201.6 69.6-210.7 0 0 36.3-21.2 0 110.9 0 0-6 36.3 27.2 25.2s68.5-87.7 77.6-156.2c0 0-12.1 142.1 10.1 149.2s127-232.8 126-363.9c0 0-24.2 321.6-16.1 346.8s50 4.6 74.2-78.1"/>
	<path class="st1" d="m1049.6 375s-89.7 339.7-23.2 317.5 59.5-158.2 59.5-158.2-6 122 14.1 154.2"/>
	<circle class="st2" cx="1093.1" cy="484.6" r="14.1"/>
	<line class="st1" x1="1181.7" x2="1181.7" y1="783.2" y2="495"/>
	<path class="st1" d="m1137.3 541.5s113.9-214.9 223.8-145.3c0 0 58.5 36.3-126 208.7"/>
	<path class="st1" d="m1709.9 396.2c-35.3-117.9-230.1-14-315.6 121-78.7 124.2-89.5 246.9-7.1 274.1 77.5 25.6 180.1 1.6 216.9-123"/>
	<path class="st1" d="m1941.1 499.3"/>
	<path class="st3" d="m1662.2 649.5l54.6-125.7c1.4-3.2 5-4.9 8.3-3.9 55.3 15.7 109.5 43.6 233.4-40 0 0-102.3 56.3-100 97.7s86.7 15.7 86.7 15.7"/>
	<path class="st1" d="m1958.3 482.3s-12.9 104.7-1.4 144.3"/>
	<path class="st1" d="m1627.9 873.7c158.5 37.7 351.4 32.5 527.5-82.6 181.3-118.4 84.4-348.2 84.4-348.2s-47.9 43.1-68.6 23.3 39.6-56.4 39.6-56.4 36.4-7.8 30.8 17.4"/>
	<circle class="st2" cx="809" cy="571.6" r="14.1"/>
	<path class="st1" d="m2090.6 626.6c-75.1-21.7-32.2-158.6-32.2-158.6"/>
	<circle class="st2" cx="2065.6" cy="418.2" r="14.1"/>
</svg>
